<svg width="730" height="700" viewBox="0 0 730 700" fill="none" xmlns="http://www.w3.org/2000/svg">
<path d="M213.76 698.409C213.76 699.291 214.469 700 215.353 700H728.22C729.103 700 729.812 699.291 729.812 698.409C729.812 697.526 729.103 696.818 728.22 696.818H215.353C214.469 696.818 213.76 697.526 213.76 698.409Z" fill="#CCCCCC"/>
<path d="M291.583 699.322H55.5149C26.7305 699.322 3.31242 675.92 3.31242 647.155V140.175C3.31242 111.41 26.7305 88.0079 55.5149 88.0079H291.583C320.367 88.0079 343.785 111.41 343.785 140.175V647.155C343.785 675.92 320.367 699.322 291.583 699.322Z" fill="#3F3D56"/>
<path d="M343.785 274.492C342.567 274.492 341.577 275.482 341.577 276.699V347.32C341.577 348.537 342.567 349.527 343.785 349.527C345.003 349.527 345.993 348.537 345.993 347.32V276.699C345.993 275.482 345.003 274.492 343.785 274.492Z" fill="#3F3D56"/>
<path d="M338.816 140.175V647.146C338.816 672.183 319.316 692.664 294.659 694.253H294.648C294.284 694.275 293.919 694.297 293.544 694.308C292.892 694.341 292.241 694.352 291.578 694.352C291.578 694.352 289.149 694.175 284.71 693.844C280.227 693.513 273.701 693.017 265.563 692.366C263.123 692.178 260.55 691.968 257.834 691.748C252.423 691.306 246.483 690.821 240.111 690.269C237.572 690.059 234.944 689.828 232.26 689.596C218.546 688.415 203.186 687.036 186.988 685.469C184.249 685.215 181.489 684.95 178.706 684.674C177.977 684.597 177.238 684.531 176.498 684.454C164.948 683.317 8.28184 653.061 8.28184 647.146V140.175C8.28184 114.1 29.4275 92.9693 55.5199 92.9693H83.7214C88.2266 92.9693 91.8484 96.4783 92.2349 100.969C92.268 101.267 92.3011 101.565 92.3563 101.863C93.1734 106.376 97.3142 109.521 101.908 109.521H245.191C249.784 109.521 253.925 106.376 254.742 101.863C254.797 101.565 254.83 101.267 254.863 100.969C255.25 96.4783 258.872 92.9693 263.377 92.9693H291.578C317.671 92.9693 338.816 114.1 338.816 140.175Z" fill="white"/>
<path d="M2.20841 221.526C0.990437 221.526 0 222.516 0 223.733V241.388C0 242.605 0.99045 243.595 2.20841 243.595C3.42637 243.595 4.41682 242.605 4.41682 241.388V223.733C4.41682 222.516 3.42637 221.526 2.20841 221.526Z" fill="#3F3D56"/>
<path d="M2.20841 274.492C0.990437 274.492 0 275.482 0 276.699V310.906C0 312.123 0.99045 313.113 2.20841 313.113C3.42637 313.113 4.41682 312.123 4.41682 310.906V276.699C4.41682 275.482 3.42637 274.492 2.20841 274.492Z" fill="#3F3D56"/>
<path d="M2.20841 323.044C0.990437 323.044 0 324.034 0 325.251V359.458C0 360.675 0.99045 361.665 2.20841 361.665C3.42637 361.665 4.41682 360.675 4.41682 359.458V325.251C4.41682 324.034 3.42637 323.044 2.20841 323.044Z" fill="#3F3D56"/>
<path d="M82.9527 100.698H40.7187C40.4895 100.698 40.3036 100.884 40.3036 101.113V105.8C40.3036 106.029 40.4895 106.215 40.7187 106.215H82.9527C83.1819 106.215 83.3678 106.029 83.3678 105.8V101.113C83.3678 100.884 83.1819 100.698 82.9527 100.698Z" fill="#E6E6E6"/>
<path d="M270.355 106.215C272.795 106.215 274.772 104.239 274.772 101.801C274.772 99.3636 272.795 97.3874 270.355 97.3874C267.916 97.3874 265.938 99.3636 265.938 101.801C265.938 104.239 267.916 106.215 270.355 106.215Z" fill="#E6E6E6"/>
<path d="M282.502 106.215C284.941 106.215 286.918 104.239 286.918 101.801C286.918 99.3636 284.941 97.3874 282.502 97.3874C280.062 97.3874 278.085 99.3636 278.085 101.801C278.085 104.239 280.062 106.215 282.502 106.215Z" fill="#E6E6E6"/>
<path d="M294.648 106.215C297.087 106.215 299.065 104.239 299.065 101.801C299.065 99.3636 297.087 97.3874 294.648 97.3874C292.208 97.3874 290.231 99.3636 290.231 101.801C290.231 104.239 292.208 106.215 294.648 106.215Z" fill="#E6E6E6"/>
<path d="M266.661 399.161H79.3321C76.3809 399.161 73.9798 396.762 73.9798 393.812C73.9798 390.863 76.3809 388.464 79.3321 388.464H266.661C269.613 388.464 272.014 390.863 272.014 393.812C272.014 396.762 269.613 399.161 266.661 399.161Z" fill="#E6E6E6"/>
<path d="M173.669 606.42C216.53 606.42 251.277 571.697 251.277 528.865C251.277 486.032 216.53 451.31 173.669 451.31C130.807 451.31 96.0608 486.032 96.0608 528.865C96.0608 571.697 130.807 606.42 173.669 606.42Z" fill="#40AECB"/>
<path d="M149.663 504.177C148.96 502.071 146.677 500.943 144.582 501.633C142.487 502.322 141.346 504.616 142.036 506.71L148.308 525.501H145.849C143.629 525.501 141.835 527.293 141.835 529.512C141.835 531.731 143.629 533.524 145.849 533.524H150.98L158.093 554.847C158.657 556.539 160.275 557.655 162.057 557.592C163.838 557.53 165.368 556.289 165.795 554.559L171.063 533.524H176.834L182.103 554.559C182.529 556.289 184.059 557.53 185.841 557.592C187.622 557.655 189.24 556.539 189.805 554.847L196.917 533.524H202.048C204.268 533.524 206.062 531.731 206.062 529.512C206.062 527.293 204.268 525.501 202.048 525.501H199.589L205.862 506.71C206.564 504.604 205.423 502.335 203.328 501.633C201.233 500.931 198.95 502.071 198.247 504.165L191.122 525.501H183.094L177.837 504.466C177.398 502.686 175.793 501.432 173.949 501.432C172.105 501.432 170.499 502.686 170.06 504.466L164.791 525.501H156.763L149.663 504.177ZM159.447 533.524H162.784L161.354 539.24L159.447 533.524ZM173.071 525.501L173.949 521.978L174.827 525.501H173.071ZM185.113 533.524H188.45L186.543 539.24L185.113 533.524Z" fill="white"/>
<path d="M584.85 0H202.216C188.18 0 176.766 11.4059 176.766 25.4326V287.461C176.766 301.488 188.18 312.894 202.216 312.894H584.85C598.886 312.894 610.3 301.488 610.3 287.461V25.4326C610.3 11.4059 598.886 0 584.85 0Z" fill="white"/>
<path d="M391.774 155.799C415.421 155.799 434.592 136.642 434.592 113.01C434.592 89.3788 415.421 70.2216 391.774 70.2216C368.126 70.2216 348.955 89.3788 348.955 113.01C348.955 136.642 368.126 155.799 391.774 155.799Z" fill="#40AECB"/>
<path d="M584.85 0H202.216C188.18 0 176.766 11.4059 176.766 25.4326V287.461C176.766 301.488 188.18 312.894 202.216 312.894H584.85C598.886 312.894 610.3 301.488 610.3 287.461V25.4326C610.3 11.4059 598.886 0 584.85 0ZM607.624 287.461C607.624 300.017 597.414 310.219 584.85 310.219H202.216C189.652 310.219 179.442 300.017 179.442 287.461V25.4326C179.442 12.8768 189.652 2.6743 202.216 2.6743H584.85C597.414 2.6743 607.624 12.8768 607.624 25.4326V287.461Z" fill="#3F3D56"/>
<path d="M349.417 25.8739H311.871C309.984 25.8739 308.445 27.4116 308.445 29.297C308.445 31.1957 309.984 32.7335 311.871 32.7335H349.417C351.304 32.7335 352.842 31.1957 352.842 29.297C352.842 27.4116 351.304 25.8739 349.417 25.8739Z" fill="#E6E6E6"/>
<path d="M412.306 25.8739H374.76C372.873 25.8739 371.334 27.4116 371.334 29.297C371.334 31.1957 372.873 32.7335 374.76 32.7335H412.306C414.193 32.7335 415.732 31.1957 415.732 29.297C415.732 27.4116 414.193 25.8739 412.306 25.8739Z" fill="#E6E6E6"/>
<path d="M475.195 25.8739H437.649C435.762 25.8739 434.224 27.4116 434.224 29.297C434.224 31.1957 435.762 32.7335 437.649 32.7335H475.195C477.082 32.7335 478.621 31.1957 478.621 29.297C478.621 27.4116 477.082 25.8739 475.195 25.8739Z" fill="#E6E6E6"/>
<path d="M537.121 179.868H249.945C237.996 179.868 228.282 189.576 228.282 201.517V221.066C228.282 233.006 237.996 242.714 249.945 242.714H537.121C549.07 242.714 558.784 233.006 558.784 221.066V201.517C558.784 189.576 549.07 179.868 537.121 179.868Z" fill="#40AECB"/>
<path d="M97.9187 282.797L86.9065 277.584C91.4233 283.883 95.3152 293.721 97.3988 301.549C100.927 294.257 106.614 285.334 112.243 280.005L100.604 282.997C107.776 247.873 134.751 222.657 165.64 222.657V219.983C133.375 219.983 105.241 246.254 97.9187 282.797Z" fill="#3F3D56"/>
<path d="M148.604 336.315H79.0241C76.0729 336.315 73.6719 333.915 73.6719 330.966C73.6719 328.017 76.0729 325.618 79.0241 325.618H148.604C151.555 325.618 153.956 328.017 153.956 330.966C153.956 333.915 151.555 336.315 148.604 336.315Z" fill="#E6E6E6"/>
<path d="M611.468 318.895L610.766 373.503L597.169 422.182L586.3 418.131L591.126 373.511L590.492 313.129L611.468 318.895Z" fill="#FFB6B6"/>
<path d="M597.123 430.032C598.398 423.032 596.061 416.744 591.902 415.987C587.743 415.231 583.337 420.292 582.062 427.291C580.787 434.291 583.124 440.579 587.283 441.336C591.442 442.093 595.848 437.032 597.123 430.032Z" fill="#FFB6B6"/>
<path d="M594.969 253.874C594.969 253.874 618.261 254.194 618.241 266.558C618.23 273.539 616.73 336.924 612.555 375.429C609.335 405.123 603.188 412.869 603.188 412.869L588.469 379.44L594.969 253.874Z" fill="#E6E6E6"/>
<path d="M594.37 365.442H515.708C522.302 350.739 526.355 336.737 520.018 325.599L594.37 321.292C590.654 336.328 590.2 351.083 594.37 365.442Z" fill="#FFB6B6"/>
<path d="M584.672 235.146L553.423 232.993L540.492 249.145L533.937 250.336C524.11 252.122 517.113 260.885 517.552 270.856L520.102 328.771L594.794 334.214L612.688 258.796L591.137 250.222L584.672 235.146Z" fill="#E6E6E6"/>
<path d="M394.102 252.617C396.319 254.61 397.902 256.939 398.737 259.197L421.058 276.851L412.341 287.219L390.638 268.194C388.302 267.602 385.819 266.274 383.602 264.281C378.537 259.728 376.781 253.426 379.681 250.205C382.58 246.984 389.037 248.064 394.102 252.617Z" fill="#FFB6B6"/>
<path d="M551.909 267.479L466.385 325.19L405.079 282.556L414.283 265.896L462.534 293.918L507.031 259.774C522.876 244.901 542.735 247.784 551.909 267.479Z" fill="#E6E6E6"/>
<path d="M567.194 228.156C579.998 228.156 590.377 217.784 590.377 204.989C590.377 192.194 579.998 181.821 567.194 181.821C554.39 181.821 544.011 192.194 544.011 204.989C544.011 217.784 554.39 228.156 567.194 228.156Z" fill="#FFB6B6"/>
<path d="M598.706 199.297V203.79L572.56 196.435L552.957 200.54C552.73 197.559 551.846 194.63 550.375 192.036C551.399 196.197 551.513 199.416 550.428 201.075L547.792 201.623C547.364 200.46 546.534 199.444 545.45 198.829C545.343 198.762 545.21 198.708 545.089 198.749C544.902 198.815 544.889 199.056 544.889 199.243C544.915 200.233 544.942 201.222 544.982 202.212L537.409 203.79V199.297C530.143 182.96 549.293 168.823 568.064 168.676C576.534 168.61 584.188 172.099 589.741 177.635C595.28 183.184 598.706 190.833 598.706 199.297Z" fill="#2F2E41"/>
<path d="M613.414 251.978L611.44 251.815C611.58 251.17 611.721 250.533 611.849 249.888C612.943 244.473 610.535 237.579 610.358 232.377C609.428 237.874 611.018 244.636 609.374 249.855C609.19 250.435 602.046 254.177 601.85 254.749C593.943 251.859 585.709 242.626 576.385 248.019C570.87 251.208 564.578 249.81 558.317 248.35C556.767 247.988 556.552 240.34 555.018 240.04C552.271 239.502 548.237 246.454 545.651 246.726L556.356 205.274C556.356 182.724 554.266 159.065 582.85 167.039C590.039 169.044 597.154 170.616 602.46 176.546C607.766 182.483 611.544 190.781 612.882 200.231C613.689 205.931 618.726 225.288 613.414 251.978Z" fill="#2F2E41"/>
<path d="M594.956 668.817L582.195 669.118L575.082 611.829L593.914 611.384L594.956 668.817Z" fill="#FFB7B7"/>
<path d="M551.176 695.422C551.176 697.576 552.706 699.322 554.593 699.322H579.921C579.921 699.322 582.414 689.31 592.576 685.001L593.278 699.322H606.344L604.761 676.294C604.761 676.294 608.256 663.974 600.997 657.676C593.738 651.378 599.618 652.255 599.618 652.255L596.762 638.002L577.018 640.322L576.872 662.696L567.291 684.904L553.237 691.841C551.986 692.459 551.176 693.866 551.176 695.422Z" fill="#2F2E41"/>
<path d="M556.133 659.481L543.867 663.008L522.439 609.398L540.541 604.192L556.133 659.481Z" fill="#FFB7B7"/>
<path d="M520.542 696.317C521.089 698.4 523.012 699.702 524.838 699.223L549.337 692.8C549.337 692.8 549.206 682.483 557.941 675.738L562.256 689.413L574.895 686.1L567.516 664.227C567.516 664.227 567.768 651.423 559.148 647.172C550.527 642.922 556.437 642.279 556.437 642.279L550.056 629.217L531.547 636.468L537.088 658.146L533.459 682.056L521.626 692.331C520.573 693.246 520.147 694.812 520.542 696.317Z" fill="#2F2E41"/>
<path d="M587.131 362.057L595.16 364.732C607.712 387.899 613.034 418.664 612.329 455.763L598.068 622.387H574.736L557.662 436.761L527.556 506.433L549.583 622.387L527.556 624.631L483.189 504.058L514.087 363.922L587.131 362.057Z" fill="#2F2E41"/>
<path d="M375.863 96.768C375.395 95.364 373.873 94.6119 372.476 95.0715C371.079 95.5312 370.318 97.0605 370.778 98.4562L374.96 110.984H373.321C371.84 110.984 370.645 112.179 370.645 113.658C370.645 115.137 371.84 116.332 373.321 116.332H376.741L381.483 130.548C381.859 131.676 382.938 132.42 384.126 132.378C385.313 132.336 386.333 131.509 386.618 130.356L390.13 116.332H393.977L397.489 130.356C397.774 131.509 398.794 132.336 399.982 132.378C401.169 132.42 402.248 131.676 402.624 130.548L407.366 116.332H410.786C412.267 116.332 413.463 115.137 413.463 113.658C413.463 112.179 412.267 110.984 410.786 110.984H409.147L413.329 98.4562C413.797 97.0522 413.036 95.5395 411.64 95.0715C410.243 94.6035 408.721 95.364 408.253 96.7597L403.502 110.984H398.15L394.646 96.9603C394.353 95.7735 393.283 94.9378 392.054 94.9378C390.824 94.9378 389.754 95.7735 389.461 96.9603L385.949 110.984H380.596L375.863 96.768ZM382.386 116.332H384.611L383.657 120.143L382.386 116.332ZM391.468 110.984L392.054 108.635L392.639 110.984H391.468ZM399.497 116.332H401.721L400.45 120.143L399.497 116.332Z" fill="white"/>
</svg>
