<svg width="141" height="125" viewBox="0 0 141 125" fill="none" xmlns="http://www.w3.org/2000/svg">
<path d="M27.9552 124.98C27.9552 124.146 27.9552 123.55 27.9552 122.945C27.9552 102.76 27.935 82.5854 28.0055 62.4007C28.0055 61.4376 28.4583 60.2264 29.1325 59.5612C49.007 39.9722 68.9418 20.4428 88.8666 0.903495C89.1182 0.645353 89.4 0.416998 89.8629 0C91.8755 1.97577 93.868 3.92176 95.8504 5.87768C110.23 19.9762 124.6 34.0747 139.001 48.1434C140.037 49.1561 140.5 50.1688 140.5 51.6382C140.46 75.3475 140.47 99.0568 140.47 122.756C140.47 123.471 140.47 124.186 140.47 125C135.096 125 129.944 125 124.53 125C124.53 124.136 124.53 123.382 124.53 122.617C124.53 101.162 124.52 79.7061 124.56 58.2407C124.56 56.7911 124.158 55.7685 123.101 54.7359C112.575 44.4897 102.11 34.1938 91.6138 23.9079C91.0604 23.3618 90.4767 22.8356 89.7824 22.1902C84.8414 26.9658 80.0011 31.6223 75.1809 36.3086C71.0551 40.3197 66.9292 44.3209 62.8336 48.3717C56.7958 54.3487 50.7882 60.3554 44.8107 66.4019C44.3176 66.8983 43.9352 67.7522 43.9352 68.4472C43.8849 81.5727 43.9151 94.7081 43.8749 107.834C43.8749 109.055 44.3176 109.382 45.495 109.382C62.5619 109.363 79.6288 109.363 96.6957 109.382C97.8227 109.382 98.3762 109.124 98.3661 107.863C98.3158 102.82 98.3058 97.776 98.3762 92.7323C98.3963 91.3225 97.7221 91.1735 96.5649 91.1835C88.8063 91.2133 81.0376 91.1934 73.279 91.1934C72.5444 91.1934 71.8199 91.1934 70.9243 91.1934C70.9243 85.9313 70.9243 80.8082 70.9243 75.556C85.2641 75.556 99.5938 75.556 114.105 75.556C114.105 92.0075 114.105 108.429 114.105 124.98C85.4351 124.98 56.8159 124.98 27.9552 124.98Z" fill="url(#paint0_linear_7_4)"/>
<path d="M51.9353 21.4654C47.1152 26.3801 42.8887 30.7983 38.5616 35.0973C31.6986 41.9083 24.7853 48.6696 17.8519 55.4011C16.8556 56.3642 16.4229 57.3372 16.4229 58.7272C16.4632 79.9345 16.4531 101.132 16.4531 122.339C16.4531 123.124 16.4531 123.908 16.4531 124.861C11.1499 124.861 5.95738 124.861 0.593787 124.861C0.563598 124.206 0.50322 123.56 0.50322 122.915C0.50322 99.2851 0.483094 75.6652 0.543472 52.0353C0.543472 51.112 0.875552 49.9206 1.50952 49.305C17.9123 33.1116 34.3854 16.9678 50.8485 0.824067C51.1102 0.565925 51.3919 0.337569 51.6335 0.129071C57.148 5.71882 62.6223 11.2589 68.0462 16.7494C64.8059 20.0258 61.1631 23.6994 57.2486 27.6608C55.5983 25.7347 53.9882 23.8582 51.9353 21.4654Z" fill="url(#paint1_linear_7_4)"/>
<path d="M114.256 72.4782C108.862 72.4782 98.5271 72.4782 98.5271 72.4782C98.5271 72.4782 98.5171 71.6839 98.5171 70.0159C98.5171 67.226 97.0378 66.4019 94.8743 64.3169C87.7798 57.4861 80.7961 50.5361 73.7721 43.6358C73.4702 43.338 73.1985 43.0103 72.9771 42.782C76.6401 39.0488 80.2627 35.3554 83.976 31.5727C84.4993 32.0294 84.9219 32.357 85.3043 32.7343C94.512 41.7693 103.71 50.834 112.947 59.8392C113.903 60.7724 114.316 61.7057 114.286 63.0361C114.205 66.114 114.256 69.2017 114.256 72.4782Z" fill="url(#paint2_linear_7_4)"/>
<defs>
<linearGradient id="paint0_linear_7_4" x1="0.495925" y1="62.4963" x2="140.497" y2="62.4963" gradientUnits="userSpaceOnUse">
<stop stop-color="#3A75B8"/>
<stop offset="1" stop-color="#54BBA7"/>
</linearGradient>
<linearGradient id="paint1_linear_7_4" x1="0.506674" y1="62.5013" x2="140.507" y2="62.5013" gradientUnits="userSpaceOnUse">
<stop stop-color="#3A75B8"/>
<stop offset="1" stop-color="#54BBA7"/>
</linearGradient>
<linearGradient id="paint2_linear_7_4" x1="72.9833" y1="52.0244" x2="114.289" y2="52.0244" gradientUnits="userSpaceOnUse">
<stop stop-color="#3A75B8"/>
<stop offset="1" stop-color="#54BBA7"/>
</linearGradient>
</defs>
</svg>
